<svg width="50" height="36" viewBox="0 0 50 36" fill="none" xmlns="http://www.w3.org/2000/svg">
<path d="M28.8078 0.980293C29.8855 1.58668 30.5193 2.5781 31.171 3.59935C31.2428 3.71062 31.3145 3.82189 31.3884 3.93653C31.6041 4.27155 31.8185 4.60727 32.0325 4.94333C32.0931 5.03842 32.1536 5.1335 32.216 5.23146C32.5445 5.74816 32.8708 6.26617 33.1962 6.78475C33.3574 7.04115 33.5194 7.2971 33.6815 7.55291C34.3198 8.56022 34.9512 9.57149 35.5777 10.5862C36.0216 11.3044 36.4708 12.0191 36.9226 12.7323C37.3678 13.4355 37.8089 14.1413 38.2493 14.8475C38.916 15.916 39.5899 16.9797 40.267 18.0416C41.1088 19.3617 41.9419 20.6871 42.7706 22.0154C43.4369 23.0832 44.1103 24.1462 44.7871 25.2074C45.2997 26.0113 45.8082 26.8177 46.3168 27.6242C46.5359 27.9715 46.7553 28.3188 46.9746 28.666C47.0844 28.8399 47.1942 29.0138 47.3039 29.1877C47.5892 29.6401 47.8757 30.0918 48.1638 30.5424C48.2232 30.6357 48.2827 30.7289 48.3439 30.825C48.4567 31.002 48.5698 31.1788 48.6833 31.3553C49.2809 32.2946 49.7288 33.0193 49.5664 34.1665C49.3682 34.8478 48.9425 35.3258 48.3534 35.7103C47.8399 35.9758 47.3655 35.9624 46.8014 35.9604C46.7004 35.9609 46.5994 35.9614 46.4953 35.9619C46.1568 35.9633 45.8182 35.9631 45.4796 35.9629C45.2368 35.9636 44.9941 35.9643 44.7513 35.9652C44.0914 35.9671 43.4315 35.9676 42.7716 35.9678C42.3589 35.9679 41.9461 35.9684 41.5334 35.969C40.1665 35.9709 38.7995 35.9719 37.4326 35.9718C37.3589 35.9718 37.2852 35.9718 37.2093 35.9717C37.1356 35.9717 37.0618 35.9717 36.9858 35.9717C35.7933 35.9716 34.6008 35.9737 33.4083 35.9768C32.1816 35.98 30.9549 35.9815 29.7281 35.9813C29.0404 35.9813 28.3526 35.9819 27.6648 35.9843C27.0168 35.9864 26.3689 35.9864 25.7209 35.9848C25.4842 35.9846 25.2476 35.9851 25.0109 35.9864C22.8117 35.9981 20.8796 35.7795 19.2061 34.194C18.1753 33.0953 17.6121 31.9738 17.545 30.4515C17.6062 29.1081 18.2969 28.0022 19.2474 27.0881C19.8583 26.5604 20.5244 26.1714 21.232 25.7914C24.7192 23.8978 27.0853 21.705 28.8095 18.1024C28.9448 17.8456 28.9448 17.8456 29.1653 17.6251C29.7461 17.5633 29.7461 17.5633 30.0109 17.7655C30.2793 18.1134 30.2016 18.5337 30.1578 18.9484C29.6494 22.0675 27.6729 24.5168 25.4118 26.5816C24.7563 27.1909 23.9439 27.9949 23.8419 28.9288C23.8146 29.7515 23.9153 30.3101 24.4235 30.9685C25.1318 31.6768 26.1986 32.098 27.1905 32.1C27.3227 32.1007 27.4549 32.1015 27.5911 32.1023C27.7347 32.1021 27.8782 32.1018 28.0261 32.1015C28.1799 32.102 28.3337 32.1026 28.4876 32.1032C28.904 32.1047 29.3205 32.1048 29.737 32.1045C30.0848 32.1044 30.4326 32.1049 30.7804 32.1054C31.6005 32.1066 32.4206 32.1067 33.2408 32.106C34.0872 32.1054 34.9336 32.1067 35.78 32.1091C36.507 32.111 37.2339 32.1117 37.9609 32.1113C38.395 32.1111 38.829 32.1114 39.2631 32.1129C39.6709 32.1143 40.0787 32.1141 40.4864 32.1127C40.7077 32.1123 40.929 32.1135 41.1503 32.1148C41.3472 32.1137 41.3472 32.1137 41.5481 32.1125C41.6624 32.1125 41.7767 32.1125 41.8945 32.1125C42.181 32.0937 42.181 32.0937 42.3791 31.9212C42.5941 31.6213 42.5641 31.4421 42.5087 31.0787C42.345 30.7224 42.1394 30.3965 41.9298 30.0656C41.8399 29.9199 41.8399 29.9199 41.7481 29.7713C41.5621 29.4709 41.3741 29.1719 41.1854 28.8732C41.0773 28.7008 40.9692 28.5283 40.8611 28.3559C40.6472 28.0157 40.4322 27.6762 40.2166 27.3371C39.2397 25.7991 38.2772 24.2516 37.3258 22.6978C36.6697 21.6282 36.0066 20.5633 35.3408 19.4998C35.0719 19.0702 34.8031 18.6406 34.5344 18.2109C34.4639 18.0981 34.3933 17.9853 34.3206 17.8692C33.9189 17.2264 33.5191 16.5826 33.1214 15.9374C32.8331 15.47 32.5434 15.0035 32.2531 14.5373C32.1685 14.4012 32.1685 14.4012 32.0823 14.2624C31.9198 14.0018 31.7558 13.7422 31.5914 13.4828C31.5437 13.406 31.496 13.3292 31.4468 13.25C31.0313 12.6007 30.5989 12.1826 29.827 12.001C29.1262 11.9332 28.6412 12.0306 28.0626 12.4421C27.4907 12.965 27.0769 13.6196 26.6574 14.2654C26.4096 14.6469 26.1576 15.0255 25.9049 15.4036C25.553 15.9307 25.2016 16.4582 24.8512 16.9863C24.6458 17.2959 24.4401 17.6053 24.2344 17.9147C24.1302 18.0716 24.0261 18.2285 23.9221 18.3854C22.1161 21.1103 22.1161 21.1103 21.6666 21.4847C21.1823 21.5578 20.9663 21.533 20.5569 21.2573C20.3162 21.0338 20.1144 20.7895 19.9091 20.5336C19.495 20.045 19.1065 19.8637 18.4794 19.7961C17.9666 19.7758 17.5819 19.7827 17.1108 19.996C16.3512 20.7026 15.7606 21.525 15.1543 22.3618C14.8371 22.7991 14.5136 23.2313 14.1885 23.6627C13.633 24.4008 13.0843 25.1437 12.5373 25.8881C12.1262 26.4469 11.7114 27.0029 11.2938 27.5568C10.8236 28.1804 10.3639 28.8109 9.90841 29.4453C9.49903 30.0155 9.08484 30.5797 8.65402 31.1339C8.21429 31.6996 7.79081 32.2755 7.37207 32.8569C7.31087 32.9418 7.24967 33.0267 7.18662 33.1142C6.92305 33.4804 6.6604 33.8472 6.40112 34.2164C6.28811 34.3759 6.28811 34.3759 6.17281 34.5386C6.11027 34.6282 6.04772 34.7178 5.98328 34.81C5.64938 35.2157 5.2854 35.5046 4.78747 35.6759C4.71569 35.7013 4.6439 35.7268 4.56994 35.753C3.98471 35.9356 3.44769 35.9587 2.83697 35.9653C2.74116 35.9685 2.64535 35.9717 2.54663 35.975C1.81319 35.9822 1.2019 35.848 0.656163 35.3301C0.0719196 34.658 -0.0124969 34.1333 0.00134603 33.2561C0.0862421 32.5708 0.394943 32.0638 0.755509 31.4854C0.825901 31.3665 0.896293 31.2476 0.968818 31.1251C1.11013 30.887 1.25282 30.6498 1.39697 30.4135C1.57126 30.1274 1.74165 29.8398 1.90953 29.5499C2.35977 28.7727 2.82372 28.0037 3.28736 27.2343C3.7444 26.4736 4.18946 25.7058 4.63592 24.9388C5.25017 23.8841 5.87065 22.8332 6.4926 21.783C6.66846 21.4857 6.84393 21.1883 7.01927 20.8907C7.71718 19.7068 8.42113 18.5268 9.13031 17.3496C9.69663 16.4074 10.2507 15.4584 10.7971 14.5044C11.6167 13.0847 11.6167 13.0847 12.2931 12.7729C12.9488 12.6722 13.6277 12.6573 14.2161 12.9935C14.7897 13.4249 15.1469 13.9996 15.5127 14.6067C15.5558 14.6769 15.5988 14.7472 15.6432 14.8195C15.7292 14.9606 15.8133 15.1028 15.8954 15.2461C16.0253 15.4699 16.0253 15.4699 16.2631 15.7504C16.5337 15.8146 16.5337 15.8146 16.8144 15.7504C17.0203 15.5587 17.0203 15.5587 17.1806 15.2869C17.2463 15.1859 17.312 15.0849 17.3797 14.9808C17.4479 14.8709 17.5161 14.7609 17.5864 14.6476C17.656 14.5371 17.7256 14.4266 17.7973 14.3127C18.019 13.9571 18.2372 13.5997 18.4548 13.2416C18.6111 12.9857 18.7677 12.73 18.9243 12.4744C18.9984 12.3535 19.0725 12.2326 19.1489 12.108C19.4595 11.6042 19.7794 11.107 20.1016 10.6105C20.5743 9.88172 21.0341 9.14455 21.4973 8.4097C21.6603 8.15125 21.8236 7.89297 21.9871 7.63476C22.0398 7.55144 22.0925 7.46812 22.1468 7.38227C22.2544 7.21214 22.3621 7.04202 22.4698 6.87193C22.7832 6.37623 23.0938 5.87897 23.4021 5.38013C26.6409 0.145439 26.6409 0.145439 28.8078 0.980293Z" fill="url(#paint0_radial_2076_6135)"/>
<defs>
<radialGradient id="paint0_radial_2076_6135" cx="0" cy="0" r="1" gradientUnits="userSpaceOnUse" gradientTransform="translate(23.7445 10.6099) rotate(45.7331) scale(38.1415 40.661)">
<stop stop-color="white"/>
<stop offset="1" stop-color="#B4C4C9"/>
</radialGradient>
</defs>
</svg>
